<svg width="1591" height="522" viewBox="0 0 1591 522" fill="none" xmlns="http://www.w3.org/2000/svg">
<path d="M688.6 7.30474C688.6 3.27045 691.87 0 695.904 0H894.959C898.993 0 902.263 3.27044 902.263 7.30474V32.8713H688.6V7.30474Z" fill="white"/>
<path d="M700.014 16.4356C700.014 20.4699 703.284 23.7403 707.318 23.7403C711.353 23.7403 714.623 20.4699 714.623 16.4356C714.623 12.4013 711.353 9.13086 707.318 9.13086C703.284 9.13086 700.014 12.4013 700.014 16.4356Z" fill="#BB6BD9"/>
<rect x="722.385" y="11.6421" width="77" height="9.58747" rx="4.79374" fill="#E6E6E6"/>
<g clip-path="url(#clip0_61_9274)">
<path d="M888.3 16.4356L891.173 13.5628C891.351 13.3844 891.351 13.0953 891.173 12.917C890.995 12.7386 890.705 12.7386 890.527 12.917L887.654 15.79L884.782 12.917C884.603 12.7386 884.314 12.7386 884.136 12.917C883.957 13.0953 883.957 13.3845 884.136 13.5628L887.009 16.4356L884.136 19.3084C883.957 19.4867 883.957 19.7759 884.136 19.9542C884.314 20.1325 884.603 20.1325 884.782 19.9542L887.654 17.0811L890.527 19.9542C890.705 20.1325 890.995 20.1325 891.173 19.9542C891.351 19.7758 891.351 19.4867 891.173 19.3084L888.3 16.4356Z" fill="#1A1A1A"/>
</g>
<path d="M576.27 56.1758C576.27 52.1415 579.54 48.8711 583.574 48.8711H782.628C786.663 48.8711 789.933 52.1415 789.933 56.1758V81.7424H576.27V56.1758Z" fill="white"/>
<path d="M587.684 65.3067C587.684 69.341 590.954 72.6114 594.988 72.6114C599.023 72.6114 602.293 69.341 602.293 65.3067C602.293 61.2724 599.023 58.002 594.988 58.002C590.954 58.002 587.684 61.2724 587.684 65.3067Z" fill="#56CCF2"/>
<rect x="610.055" y="60.5132" width="77" height="9.58747" rx="4.79374" fill="#E6E6E6"/>
<g clip-path="url(#clip1_61_9274)">
<path d="M775.97 65.3067L778.843 62.4339C779.021 62.2555 779.021 61.9664 778.843 61.7881C778.665 61.6097 778.375 61.6097 778.197 61.7881L775.324 64.6611L772.451 61.7881C772.273 61.6097 771.984 61.6097 771.806 61.7881C771.627 61.9664 771.627 62.2556 771.806 62.4339L774.679 65.3067L771.806 68.1794C771.627 68.3578 771.627 68.6469 771.806 68.8253C771.984 69.0036 772.273 69.0036 772.451 68.8253L775.324 65.9522L778.197 68.8253C778.375 69.0036 778.665 69.0036 778.843 68.8253C779.021 68.6469 779.021 68.3578 778.843 68.1794L775.97 65.3067Z" fill="#1A1A1A"/>
</g>
<path d="M800.934 56.1758C800.934 52.1415 804.204 48.8711 808.238 48.8711H1007.29C1011.33 48.8711 1014.6 52.1415 1014.6 56.1758V81.7424H800.934V56.1758Z" fill="white"/>
<path d="M812.348 65.3067C812.348 69.341 815.618 72.6114 819.652 72.6114C823.687 72.6114 826.957 69.341 826.957 65.3067C826.957 61.2724 823.687 58.002 819.652 58.002C815.618 58.002 812.348 61.2724 812.348 65.3067Z" fill="#FF9797"/>
<rect x="834.719" y="60.5132" width="77" height="9.58747" rx="4.79374" fill="#E6E6E6"/>
<g clip-path="url(#clip2_61_9274)">
<path d="M1000.63 65.3067L1003.51 62.4339C1003.69 62.2555 1003.69 61.9664 1003.51 61.7881C1003.33 61.6097 1003.04 61.6097 1002.86 61.7881L999.988 64.6611L997.116 61.7881C996.937 61.6097 996.648 61.6097 996.47 61.7881C996.291 61.9664 996.291 62.2556 996.47 62.4339L999.343 65.3067L996.47 68.1794C996.291 68.3578 996.291 68.6469 996.47 68.8253C996.648 69.0036 996.937 69.0036 997.116 68.8253L999.988 65.9522L1002.86 68.8253C1003.04 69.0036 1003.33 69.0036 1003.51 68.8253C1003.69 68.6469 1003.69 68.3578 1003.51 68.1794L1000.63 65.3067Z" fill="#1A1A1A"/>
</g>
<path d="M463.938 105.047C463.938 101.013 467.208 97.7427 471.242 97.7427H670.296C674.331 97.7427 677.601 101.013 677.601 105.047V130.614H463.938V105.047Z" fill="white"/>
<path d="M475.352 114.178C475.352 118.213 478.622 121.483 482.656 121.483C486.691 121.483 489.961 118.213 489.961 114.178C489.961 110.144 486.691 106.874 482.656 106.874C478.622 106.874 475.352 110.144 475.352 114.178Z" fill="#BB6BD9"/>
<rect x="497.723" y="109.385" width="77" height="9.58747" rx="4.79374" fill="#E6E6E6"/>
<g clip-path="url(#clip3_61_9274)">
<path d="M663.638 114.178L666.511 111.305C666.689 111.127 666.689 110.838 666.511 110.66C666.332 110.481 666.043 110.481 665.865 110.66L662.992 113.533L660.119 110.66C659.941 110.481 659.652 110.481 659.474 110.66C659.295 110.838 659.295 111.127 659.474 111.305L662.347 114.178L659.474 117.051C659.295 117.229 659.295 117.519 659.474 117.697C659.652 117.875 659.941 117.875 660.119 117.697L662.992 114.824L665.865 117.697C666.043 117.875 666.332 117.875 666.511 117.697C666.689 117.519 666.689 117.229 666.511 117.051L663.638 114.178Z" fill="#1A1A1A"/>
</g>
<path d="M688.602 105.047C688.602 101.013 691.872 97.7427 695.906 97.7427H894.96C898.995 97.7427 902.265 101.013 902.265 105.047V130.614H688.602V105.047Z" fill="white"/>
<path d="M700.016 114.178C700.016 118.213 703.286 121.483 707.32 121.483C711.355 121.483 714.625 118.213 714.625 114.178C714.625 110.144 711.355 106.874 707.32 106.874C703.286 106.874 700.016 110.144 700.016 114.178Z" fill="#F2C94C"/>
<rect x="722.387" y="109.385" width="77" height="9.58747" rx="4.79374" fill="#E6E6E6"/>
<g clip-path="url(#clip4_61_9274)">
<path d="M888.302 114.178L891.175 111.305C891.353 111.127 891.353 110.838 891.175 110.66C890.997 110.481 890.707 110.481 890.529 110.66L887.656 113.533L884.783 110.66C884.605 110.481 884.316 110.481 884.138 110.66C883.959 110.838 883.959 111.127 884.138 111.305L887.011 114.178L884.138 117.051C883.959 117.229 883.959 117.519 884.138 117.697C884.316 117.875 884.605 117.875 884.783 117.697L887.656 114.824L890.529 117.697C890.707 117.875 890.997 117.875 891.175 117.697C891.353 117.519 891.353 117.229 891.175 117.051L888.302 114.178Z" fill="#1A1A1A"/>
</g>
<path d="M913.266 105.047C913.266 101.013 916.536 97.7427 920.57 97.7427H1119.62C1123.66 97.7427 1126.93 101.013 1126.93 105.047V130.614H913.266V105.047Z" fill="white"/>
<path d="M924.68 114.178C924.68 118.213 927.95 121.483 931.984 121.483C936.019 121.483 939.289 118.213 939.289 114.178C939.289 110.144 936.019 106.874 931.984 106.874C927.95 106.874 924.68 110.144 924.68 114.178Z" fill="#FF9797"/>
<rect x="947.051" y="109.385" width="77" height="9.58747" rx="4.79374" fill="#E6E6E6"/>
<g clip-path="url(#clip5_61_9274)">
<path d="M1112.97 114.178L1115.84 111.305C1116.02 111.127 1116.02 110.838 1115.84 110.66C1115.66 110.481 1115.37 110.481 1115.19 110.66L1112.32 113.533L1109.45 110.66C1109.27 110.481 1108.98 110.481 1108.8 110.66C1108.62 110.838 1108.62 111.127 1108.8 111.305L1111.67 114.178L1108.8 117.051C1108.62 117.229 1108.62 117.519 1108.8 117.697C1108.98 117.875 1109.27 117.875 1109.45 117.697L1112.32 114.824L1115.19 117.697C1115.37 117.875 1115.66 117.875 1115.84 117.697C1116.02 117.519 1116.02 117.229 1115.84 117.051L1112.97 114.178Z" fill="#1A1A1A"/>
</g>
<path fill-rule="evenodd" clip-rule="evenodd" d="M344.301 179.485H351.606V172.181C351.606 176.214 348.335 179.484 344.301 179.485Z" fill="white"/>
<path d="M351.605 153.919C351.605 149.884 354.876 146.614 358.91 146.614H557.964C561.999 146.614 565.269 149.884 565.269 153.919V179.485H351.605V153.919Z" fill="white"/>
<path d="M363.02 163.05C363.02 167.084 366.29 170.354 370.324 170.354C374.359 170.354 377.629 167.084 377.629 163.05C377.629 159.015 374.359 155.745 370.324 155.745C366.29 155.745 363.02 159.015 363.02 163.05Z" fill="#F2994A"/>
<rect x="385.391" y="158.256" width="77" height="9.58747" rx="4.79374" fill="#E6E6E6"/>
<g clip-path="url(#clip6_61_9274)">
<path d="M551.306 163.05L554.179 160.177C554.357 159.999 554.357 159.71 554.179 159.531C554 159.353 553.711 159.353 553.533 159.531L550.66 162.404L547.787 159.531C547.609 159.353 547.32 159.353 547.142 159.531C546.963 159.71 546.963 159.999 547.142 160.177L550.015 163.05L547.142 165.923C546.963 166.101 546.963 166.39 547.142 166.568C547.32 166.747 547.609 166.747 547.787 166.568L550.66 163.695L553.533 166.568C553.711 166.747 554 166.747 554.179 166.568C554.357 166.39 554.357 166.101 554.179 165.923L551.306 163.05Z" fill="#1A1A1A"/>
</g>
<path fill-rule="evenodd" clip-rule="evenodd" d="M572.574 179.485H565.269V172.181C565.269 176.214 568.54 179.484 572.574 179.485Z" fill="white"/>
<path d="M583.574 153.919C583.574 149.884 586.845 146.614 590.879 146.614H789.933C793.967 146.614 797.238 149.884 797.238 153.919V179.485H583.574V153.919Z" fill="white"/>
<path d="M594.988 163.05C594.988 167.084 598.259 170.354 602.293 170.354C606.327 170.354 609.598 167.084 609.598 163.05C609.598 159.015 606.327 155.745 602.293 155.745C598.259 155.745 594.988 159.015 594.988 163.05Z" fill="#56CCF2"/>
<rect x="617.359" y="158.256" width="77" height="9.58747" rx="4.79374" fill="#E6E6E6"/>
<g clip-path="url(#clip7_61_9274)">
<path d="M783.274 163.05L786.148 160.177C786.326 159.999 786.326 159.71 786.148 159.531C785.969 159.353 785.68 159.353 785.502 159.531L782.629 162.404L779.756 159.531C779.578 159.353 779.289 159.353 779.11 159.531C778.932 159.71 778.932 159.999 779.11 160.177L781.983 163.05L779.11 165.923C778.932 166.101 778.932 166.39 779.11 166.568C779.289 166.747 779.578 166.747 779.756 166.568L782.629 163.695L785.502 166.568C785.68 166.747 785.969 166.747 786.148 166.568C786.326 166.39 786.326 166.101 786.148 165.923L783.274 163.05Z" fill="#1A1A1A"/>
</g>
<path d="M808.238 153.919C808.238 149.884 811.509 146.614 815.543 146.614H1014.6C1018.63 146.614 1021.9 149.884 1021.9 153.919V179.485H808.238V153.919Z" fill="white"/>
<path d="M819.652 163.05C819.652 167.084 822.923 170.354 826.957 170.354C830.991 170.354 834.262 167.084 834.262 163.05C834.262 159.015 830.991 155.745 826.957 155.745C822.923 155.745 819.652 159.015 819.652 163.05Z" fill="#F2C94C"/>
<rect x="842.023" y="158.256" width="77" height="9.58747" rx="4.79374" fill="#E6E6E6"/>
<g clip-path="url(#clip8_61_9274)">
<path d="M1007.94 163.05L1010.81 160.177C1010.99 159.999 1010.99 159.71 1010.81 159.531C1010.63 159.353 1010.34 159.353 1010.17 159.531L1007.29 162.404L1004.42 159.531C1004.24 159.353 1003.95 159.353 1003.77 159.531C1003.6 159.71 1003.6 159.999 1003.77 160.177L1006.65 163.05L1003.77 165.923C1003.6 166.101 1003.6 166.39 1003.77 166.568C1003.95 166.747 1004.24 166.747 1004.42 166.568L1007.29 163.695L1010.17 166.568C1010.34 166.747 1010.63 166.747 1010.81 166.568C1010.99 166.39 1010.99 166.101 1010.81 165.923L1007.94 163.05Z" fill="#1A1A1A"/>
</g>
<path d="M1032.9 153.919C1032.9 149.884 1036.17 146.614 1040.21 146.614H1239.26C1243.29 146.614 1246.56 149.884 1246.56 153.919V179.485H1032.9V153.919Z" fill="white"/>
<path d="M1044.31 163.05C1044.31 167.084 1047.58 170.354 1051.62 170.354C1055.65 170.354 1058.92 167.084 1058.92 163.05C1058.92 159.015 1055.65 155.745 1051.62 155.745C1047.58 155.745 1044.31 159.015 1044.31 163.05Z" fill="#FF9797"/>
<rect x="1066.69" y="158.256" width="77" height="9.58747" rx="4.79374" fill="#E6E6E6"/>
<g clip-path="url(#clip9_61_9274)">
<path d="M1232.6 163.05L1235.47 160.177C1235.65 159.999 1235.65 159.71 1235.47 159.531C1235.3 159.353 1235.01 159.353 1234.83 159.531L1231.96 162.404L1229.08 159.531C1228.9 159.353 1228.61 159.353 1228.44 159.531C1228.26 159.71 1228.26 159.999 1228.44 160.177L1231.31 163.05L1228.44 165.923C1228.26 166.101 1228.26 166.39 1228.44 166.568C1228.61 166.747 1228.9 166.747 1229.08 166.568L1231.96 163.695L1234.83 166.568C1235.01 166.747 1235.3 166.747 1235.47 166.568C1235.65 166.39 1235.65 166.101 1235.47 165.923L1232.6 163.05Z" fill="#1A1A1A"/>
</g>
<path d="M231.969 202.79C231.969 198.756 235.239 195.485 239.273 195.485H438.328C442.362 195.485 445.632 198.756 445.632 202.79V228.357H231.969V202.79Z" fill="white"/>
<path d="M243.383 211.921C243.383 215.955 246.653 219.226 250.688 219.226C254.722 219.226 257.992 215.955 257.992 211.921C257.992 207.887 254.722 204.616 250.688 204.616C246.653 204.616 243.383 207.887 243.383 211.921Z" fill="#56CCF2"/>
<rect x="265.754" y="207.127" width="77" height="9.58747" rx="4.79374" fill="#E6E6E6"/>
<g clip-path="url(#clip10_61_9274)">
<path d="M431.669 211.921L434.542 209.048C434.72 208.87 434.72 208.581 434.542 208.403C434.364 208.224 434.075 208.224 433.896 208.403L431.023 211.276L428.151 208.403C427.972 208.224 427.683 208.224 427.505 208.403C427.327 208.581 427.327 208.87 427.505 209.048L430.378 211.921L427.505 214.794C427.327 214.972 427.327 215.261 427.505 215.44C427.683 215.618 427.972 215.618 428.151 215.44L431.023 212.567L433.896 215.44C434.075 215.618 434.364 215.618 434.542 215.44C434.72 215.261 434.72 214.972 434.542 214.794L431.669 211.921Z" fill="#1A1A1A"/>
</g>
<path d="M456.633 202.79C456.633 198.756 459.903 195.485 463.938 195.485H662.992C667.026 195.485 670.296 198.756 670.296 202.79V228.357H456.633V202.79Z" fill="white"/>
<path d="M468.047 211.921C468.047 215.955 471.317 219.226 475.352 219.226C479.386 219.226 482.656 215.955 482.656 211.921C482.656 207.887 479.386 204.616 475.352 204.616C471.317 204.616 468.047 207.887 468.047 211.921Z" fill="#F2C94C"/>
<rect x="490.418" y="207.127" width="77" height="9.58747" rx="4.79374" fill="#E6E6E6"/>
<g clip-path="url(#clip11_61_9274)">
<path d="M656.333 211.921L659.206 209.048C659.384 208.87 659.384 208.581 659.206 208.403C659.028 208.224 658.739 208.224 658.56 208.403L655.688 211.276L652.815 208.403C652.636 208.224 652.347 208.224 652.169 208.403C651.991 208.581 651.991 208.87 652.169 209.048L655.042 211.921L652.169 214.794C651.991 214.972 651.991 215.261 652.169 215.44C652.347 215.618 652.636 215.618 652.815 215.44L655.688 212.567L658.56 215.44C658.739 215.618 659.028 215.618 659.206 215.44C659.384 215.261 659.384 214.972 659.206 214.794L656.333 211.921Z" fill="#1A1A1A"/>
</g>
<path fill-rule="evenodd" clip-rule="evenodd" d="M681.297 228.357H688.602V221.052C688.602 225.085 685.331 228.355 681.297 228.357Z" fill="white"/>
<path d="M688.602 202.79C688.602 198.756 691.872 195.485 695.906 195.485H894.96C898.995 195.485 902.265 198.756 902.265 202.79V228.357H688.602V202.79Z" fill="white"/>
<path d="M700.016 211.921C700.016 215.955 703.286 219.226 707.32 219.226C711.355 219.226 714.625 215.955 714.625 211.921C714.625 207.887 711.355 204.616 707.32 204.616C703.286 204.616 700.016 207.887 700.016 211.921Z" fill="#F2994A"/>
<rect x="722.387" y="207.127" width="77" height="9.58747" rx="4.79374" fill="#E6E6E6"/>
<g clip-path="url(#clip12_61_9274)">
<path d="M888.302 211.921L891.175 209.048C891.353 208.87 891.353 208.581 891.175 208.403C890.997 208.224 890.707 208.224 890.529 208.403L887.656 211.276L884.783 208.403C884.605 208.224 884.316 208.224 884.138 208.403C883.959 208.581 883.959 208.87 884.138 209.048L887.011 211.921L884.138 214.794C883.959 214.972 883.959 215.261 884.138 215.44C884.316 215.618 884.605 215.618 884.783 215.44L887.656 212.567L890.529 215.44C890.707 215.618 890.997 215.618 891.175 215.44C891.353 215.261 891.353 214.972 891.175 214.794L888.302 211.921Z" fill="#1A1A1A"/>
</g>
<path fill-rule="evenodd" clip-rule="evenodd" d="M909.57 228.357H902.266V221.052C902.266 225.085 905.536 228.355 909.57 228.357Z" fill="white"/>
<path d="M920.568 202.79C920.568 198.756 923.839 195.485 927.873 195.485H1126.93C1130.96 195.485 1134.23 198.756 1134.23 202.79V228.357H920.568V202.79Z" fill="white"/>
<path d="M931.982 211.921C931.982 215.955 935.253 219.226 939.287 219.226C943.321 219.226 946.592 215.955 946.592 211.921C946.592 207.887 943.321 204.616 939.287 204.616C935.253 204.616 931.982 207.887 931.982 211.921Z" fill="#FF9797"/>
<rect x="954.354" y="207.127" width="77" height="9.58747" rx="4.79374" fill="#E6E6E6"/>
<g clip-path="url(#clip13_61_9274)">
<path d="M1120.27 211.921L1123.14 209.048C1123.32 208.87 1123.32 208.581 1123.14 208.403C1122.96 208.224 1122.67 208.224 1122.5 208.403L1119.62 211.276L1116.75 208.403C1116.57 208.224 1116.28 208.224 1116.1 208.403C1115.93 208.581 1115.93 208.87 1116.1 209.048L1118.98 211.921L1116.1 214.794C1115.93 214.972 1115.93 215.261 1116.1 215.44C1116.28 215.618 1116.57 215.618 1116.75 215.44L1119.62 212.567L1122.5 215.44C1122.67 215.618 1122.96 215.618 1123.14 215.44C1123.32 215.261 1123.32 214.972 1123.14 214.794L1120.27 211.921Z" fill="#1A1A1A"/>
</g>
<path d="M1145.23 202.79C1145.23 198.756 1148.5 195.485 1152.54 195.485H1351.59C1355.63 195.485 1358.9 198.756 1358.9 202.79V228.357H1145.23V202.79Z" fill="white"/>
<path d="M1156.65 211.921C1156.65 215.955 1159.92 219.226 1163.95 219.226C1167.99 219.226 1171.26 215.955 1171.26 211.921C1171.26 207.887 1167.99 204.616 1163.95 204.616C1159.92 204.616 1156.65 207.887 1156.65 211.921Z" fill="#6FCF97"/>
<rect x="1179.02" y="207.127" width="77" height="9.58747" rx="4.79374" fill="#E6E6E6"/>
<g clip-path="url(#clip14_61_9274)">
<path d="M1344.93 211.921L1347.81 209.048C1347.98 208.87 1347.98 208.581 1347.81 208.403C1347.63 208.224 1347.34 208.224 1347.16 208.403L1344.29 211.276L1341.41 208.403C1341.24 208.224 1340.95 208.224 1340.77 208.403C1340.59 208.581 1340.59 208.87 1340.77 209.048L1343.64 211.921L1340.77 214.794C1340.59 214.972 1340.59 215.261 1340.77 215.44C1340.95 215.618 1341.24 215.618 1341.41 215.44L1344.29 212.567L1347.16 215.44C1347.34 215.618 1347.63 215.618 1347.81 215.44C1347.98 215.261 1347.98 214.972 1347.81 214.794L1344.93 211.921Z" fill="#1A1A1A"/>
</g>
<path d="M344.301 251.661C344.301 247.627 347.571 244.357 351.606 244.357H550.66C554.694 244.357 557.964 247.627 557.964 251.661V277.228H344.301V251.661Z" fill="white"/>
<path d="M355.715 260.792C355.715 264.827 358.985 268.097 363.02 268.097C367.054 268.097 370.324 264.827 370.324 260.792C370.324 256.758 367.054 253.488 363.02 253.488C358.985 253.488 355.715 256.758 355.715 260.792Z" fill="#56CCF2"/>
<rect x="378.086" y="255.999" width="77" height="9.58747" rx="4.79374" fill="#E6E6E6"/>
<g clip-path="url(#clip15_61_9274)">
<path d="M544.001 260.793L546.874 257.92C547.052 257.741 547.052 257.452 546.874 257.274C546.696 257.096 546.407 257.096 546.228 257.274L543.355 260.147L540.483 257.274C540.304 257.096 540.015 257.096 539.837 257.274C539.659 257.452 539.659 257.741 539.837 257.92L542.71 260.793L539.837 263.665C539.659 263.844 539.659 264.133 539.837 264.311C540.015 264.489 540.304 264.489 540.483 264.311L543.355 261.438L546.228 264.311C546.407 264.489 546.696 264.489 546.874 264.311C547.052 264.133 547.052 263.844 546.874 263.665L544.001 260.793Z" fill="#1A1A1A"/>
</g>
<path fill-rule="evenodd" clip-rule="evenodd" d="M568.965 277.228H576.27V269.923C576.27 273.957 572.999 277.226 568.965 277.228Z" fill="white"/>
<path d="M576.27 251.661C576.27 247.627 579.54 244.357 583.574 244.357H782.628C786.663 244.357 789.933 247.627 789.933 251.661V277.228H576.27V251.661Z" fill="white"/>
<path d="M587.684 260.792C587.684 264.827 590.954 268.097 594.988 268.097C599.023 268.097 602.293 264.827 602.293 260.792C602.293 256.758 599.023 253.488 594.988 253.488C590.954 253.488 587.684 256.758 587.684 260.792Z" fill="#F2994A"/>
<rect x="610.055" y="255.999" width="77" height="9.58747" rx="4.79374" fill="#E6E6E6"/>
<g clip-path="url(#clip16_61_9274)">
<path d="M775.97 260.793L778.843 257.92C779.021 257.741 779.021 257.452 778.843 257.274C778.665 257.096 778.375 257.096 778.197 257.274L775.324 260.147L772.451 257.274C772.273 257.096 771.984 257.096 771.806 257.274C771.627 257.452 771.627 257.741 771.806 257.92L774.679 260.793L771.806 263.665C771.627 263.844 771.627 264.133 771.806 264.311C771.984 264.489 772.273 264.489 772.451 264.311L775.324 261.438L778.197 264.311C778.375 264.489 778.665 264.489 778.843 264.311C779.021 264.133 779.021 263.844 778.843 263.665L775.97 260.793Z" fill="#1A1A1A"/>
</g>
<path fill-rule="evenodd" clip-rule="evenodd" d="M797.238 277.228H789.934V269.923C789.934 273.957 793.204 277.226 797.238 277.228Z" fill="white"/>
<path d="M808.238 251.661C808.238 247.627 811.509 244.357 815.543 244.357H1014.6C1018.63 244.357 1021.9 247.627 1021.9 251.661V277.228H808.238V251.661Z" fill="white"/>
<path d="M819.652 260.792C819.652 264.827 822.923 268.097 826.957 268.097C830.991 268.097 834.262 264.827 834.262 260.792C834.262 256.758 830.991 253.488 826.957 253.488C822.923 253.488 819.652 256.758 819.652 260.792Z" fill="#FF9797"/>
<rect x="842.023" y="255.999" width="77" height="9.58747" rx="4.79374" fill="#E6E6E6"/>
<g clip-path="url(#clip17_61_9274)">
<path d="M1007.94 260.793L1010.81 257.92C1010.99 257.741 1010.99 257.452 1010.81 257.274C1010.63 257.096 1010.34 257.096 1010.17 257.274L1007.29 260.147L1004.42 257.274C1004.24 257.096 1003.95 257.096 1003.77 257.274C1003.6 257.452 1003.6 257.741 1003.77 257.92L1006.65 260.793L1003.77 263.665C1003.6 263.844 1003.6 264.133 1003.77 264.311C1003.95 264.489 1004.24 264.489 1004.42 264.311L1007.29 261.438L1010.17 264.311C1010.34 264.489 1010.63 264.489 1010.81 264.311C1010.99 264.133 1010.99 263.844 1010.81 263.665L1007.94 260.793Z" fill="#1A1A1A"/>
</g>
<path d="M1032.9 251.661C1032.9 247.627 1036.17 244.357 1040.21 244.357H1239.26C1243.29 244.357 1246.56 247.627 1246.56 251.661V277.228H1032.9V251.661Z" fill="white"/>
<path d="M1044.31 260.792C1044.31 264.827 1047.58 268.097 1051.62 268.097C1055.65 268.097 1058.92 264.827 1058.92 260.792C1058.92 256.758 1055.65 253.488 1051.62 253.488C1047.58 253.488 1044.31 256.758 1044.31 260.792Z" fill="#6FCF97"/>
<rect x="1066.69" y="255.999" width="77" height="9.58747" rx="4.79374" fill="#E6E6E6"/>
<g clip-path="url(#clip18_61_9274)">
<path d="M1232.6 260.793L1235.47 257.92C1235.65 257.741 1235.65 257.452 1235.47 257.274C1235.3 257.096 1235.01 257.096 1234.83 257.274L1231.96 260.147L1229.08 257.274C1228.9 257.096 1228.61 257.096 1228.44 257.274C1228.26 257.452 1228.26 257.741 1228.44 257.92L1231.31 260.793L1228.44 263.665C1228.26 263.844 1228.26 264.133 1228.44 264.311C1228.61 264.489 1228.9 264.489 1229.08 264.311L1231.96 261.438L1234.83 264.311C1235.01 264.489 1235.3 264.489 1235.47 264.311C1235.65 264.133 1235.65 263.844 1235.47 263.665L1232.6 260.793Z" fill="#1A1A1A"/>
</g>
<path fill-rule="evenodd" clip-rule="evenodd" d="M231.969 326.099H239.273V318.795C239.273 322.828 236.003 326.098 231.969 326.099Z" fill="white"/>
<path d="M239.273 300.533C239.273 296.498 242.544 293.228 246.578 293.228H445.632C449.667 293.228 452.937 296.498 452.937 300.533V326.099H239.273V300.533Z" fill="white"/>
<path d="M250.688 309.664C250.688 313.698 253.958 316.968 257.992 316.968C262.027 316.968 265.297 313.698 265.297 309.664C265.297 305.629 262.027 302.359 257.992 302.359C253.958 302.359 250.688 305.629 250.688 309.664Z" fill="#F2994A"/>
<rect x="273.059" y="304.87" width="77" height="9.58747" rx="4.79374" fill="#E6E6E6"/>
<g clip-path="url(#clip19_61_9274)">
<path d="M438.974 309.664L441.847 306.791C442.025 306.613 442.025 306.324 441.847 306.145C441.668 305.967 441.379 305.967 441.201 306.145L438.328 309.018L435.455 306.145C435.277 305.967 434.988 305.967 434.81 306.145C434.631 306.324 434.631 306.613 434.81 306.791L437.683 309.664L434.81 312.537C434.631 312.715 434.631 313.004 434.81 313.182C434.988 313.361 435.277 313.361 435.455 313.182L438.328 310.309L441.201 313.182C441.379 313.361 441.668 313.361 441.847 313.182C442.025 313.004 442.025 312.715 441.847 312.537L438.974 309.664Z" fill="#1A1A1A"/>
</g>
<path fill-rule="evenodd" clip-rule="evenodd" d="M460.242 326.099H452.937V318.795C452.937 322.828 456.208 326.098 460.242 326.099Z" fill="white"/>
<path d="M471.242 300.533C471.242 296.498 474.513 293.228 478.547 293.228H677.601C681.635 293.228 684.906 296.498 684.906 300.533V326.099H471.242V300.533Z" fill="white"/>
<path d="M482.656 309.664C482.656 313.698 485.927 316.968 489.961 316.968C493.995 316.968 497.266 313.698 497.266 309.664C497.266 305.629 493.995 302.359 489.961 302.359C485.927 302.359 482.656 305.629 482.656 309.664Z" fill="#6FCF97"/>
<rect x="505.027" y="304.87" width="77" height="9.58747" rx="4.79374" fill="#E6E6E6"/>
<g clip-path="url(#clip20_61_9274)">
<path d="M670.942 309.664L673.816 306.791C673.994 306.613 673.994 306.324 673.816 306.145C673.637 305.967 673.348 305.967 673.17 306.145L670.297 309.018L667.424 306.145C667.246 305.967 666.957 305.967 666.778 306.145C666.6 306.324 666.6 306.613 666.778 306.791L669.651 309.664L666.778 312.537C666.6 312.715 666.6 313.004 666.778 313.182C666.957 313.361 667.246 313.361 667.424 313.182L670.297 310.309L673.17 313.182C673.348 313.361 673.637 313.361 673.815 313.182C673.994 313.004 673.994 312.715 673.815 312.537L670.942 309.664Z" fill="#1A1A1A"/>
</g>
<path d="M695.906 300.533C695.906 296.498 699.177 293.228 703.211 293.228H902.265C906.299 293.228 909.57 296.498 909.57 300.533V326.099H695.906V300.533Z" fill="white"/>
<path d="M707.32 309.664C707.32 313.698 710.591 316.968 714.625 316.968C718.659 316.968 721.93 313.698 721.93 309.664C721.93 305.629 718.659 302.359 714.625 302.359C710.591 302.359 707.32 305.629 707.32 309.664Z" fill="#56CCF2"/>
<rect x="729.691" y="304.87" width="77" height="9.58747" rx="4.79374" fill="#E6E6E6"/>
<g clip-path="url(#clip21_61_9274)">
<path d="M895.606 309.664L898.48 306.791C898.658 306.613 898.658 306.324 898.48 306.145C898.301 305.967 898.012 305.967 897.834 306.145L894.961 309.018L892.088 306.145C891.91 305.967 891.621 305.967 891.442 306.145C891.264 306.324 891.264 306.613 891.442 306.791L894.315 309.664L891.442 312.537C891.264 312.715 891.264 313.004 891.442 313.182C891.621 313.361 891.91 313.361 892.088 313.182L894.961 310.309L897.834 313.182C898.012 313.361 898.301 313.361 898.48 313.182C898.658 313.004 898.658 312.715 898.48 312.537L895.606 309.664Z" fill="#1A1A1A"/>
</g>
<path d="M920.568 300.533C920.568 296.498 923.839 293.228 927.873 293.228H1126.93C1130.96 293.228 1134.23 296.498 1134.23 300.533V326.099H920.568V300.533Z" fill="white"/>
<path d="M931.982 309.664C931.982 313.698 935.253 316.968 939.287 316.968C943.321 316.968 946.592 313.698 946.592 309.664C946.592 305.629 943.321 302.359 939.287 302.359C935.253 302.359 931.982 305.629 931.982 309.664Z" fill="#BB6BD9"/>
<rect x="954.354" y="304.87" width="77" height="9.58747" rx="4.79374" fill="#E6E6E6"/>
<g clip-path="url(#clip22_61_9274)">
<path d="M1120.27 309.664L1123.14 306.791C1123.32 306.613 1123.32 306.324 1123.14 306.145C1122.96 305.967 1122.67 305.967 1122.5 306.145L1119.62 309.018L1116.75 306.145C1116.57 305.967 1116.28 305.967 1116.1 306.145C1115.93 306.324 1115.93 306.613 1116.1 306.791L1118.98 309.664L1116.1 312.537C1115.93 312.715 1115.93 313.004 1116.1 313.182C1116.28 313.361 1116.57 313.361 1116.75 313.182L1119.62 310.309L1122.5 313.182C1122.67 313.361 1122.96 313.361 1123.14 313.182C1123.32 313.004 1123.32 312.715 1123.14 312.537L1120.27 309.664Z" fill="#1A1A1A"/>
</g>
<path d="M1145.23 300.533C1145.23 296.498 1148.5 293.228 1152.54 293.228H1351.59C1355.63 293.228 1358.9 296.498 1358.9 300.533V326.099H1145.23V300.533Z" fill="white"/>
<path d="M1156.65 309.664C1156.65 313.698 1159.92 316.968 1163.95 316.968C1167.99 316.968 1171.26 313.698 1171.26 309.664C1171.26 305.629 1167.99 302.359 1163.95 302.359C1159.92 302.359 1156.65 305.629 1156.65 309.664Z" fill="#F2C94C"/>
<rect x="1179.02" y="304.87" width="77" height="9.58747" rx="4.79374" fill="#E6E6E6"/>
<g clip-path="url(#clip23_61_9274)">
<path d="M1344.93 309.664L1347.81 306.791C1347.98 306.613 1347.98 306.324 1347.81 306.145C1347.63 305.967 1347.34 305.967 1347.16 306.145L1344.29 309.018L1341.41 306.145C1341.24 305.967 1340.95 305.967 1340.77 306.145C1340.59 306.324 1340.59 306.613 1340.77 306.791L1343.64 309.664L1340.77 312.537C1340.59 312.715 1340.59 313.004 1340.77 313.182C1340.95 313.361 1341.24 313.361 1341.41 313.182L1344.29 310.309L1347.16 313.182C1347.34 313.361 1347.63 313.361 1347.81 313.182C1347.98 313.004 1347.98 312.715 1347.81 312.537L1344.93 309.664Z" fill="#1A1A1A"/>
</g>
<path fill-rule="evenodd" clip-rule="evenodd" d="M119.637 374.971H126.941V367.666C126.941 371.699 123.671 374.969 119.637 374.971Z" fill="white"/>
<path d="M126.941 349.404C126.941 345.37 130.212 342.099 134.246 342.099H333.3C337.335 342.099 340.605 345.37 340.605 349.404V374.971H126.941V349.404Z" fill="white"/>
<path d="M138.355 358.535C138.355 362.569 141.626 365.84 145.66 365.84C149.695 365.84 152.965 362.569 152.965 358.535C152.965 354.501 149.695 351.23 145.66 351.23C141.626 351.23 138.355 354.501 138.355 358.535Z" fill="#F2994A"/>
<rect x="160.727" y="353.741" width="77" height="9.58747" rx="4.79374" fill="#E6E6E6"/>
<g clip-path="url(#clip24_61_9274)">
<path d="M326.642 358.535L329.515 355.662C329.693 355.484 329.693 355.195 329.515 355.017C329.336 354.838 329.047 354.838 328.869 355.017L325.996 357.89L323.123 355.017C322.945 354.838 322.656 354.838 322.478 355.017C322.299 355.195 322.299 355.484 322.478 355.662L325.351 358.535L322.478 361.408C322.299 361.586 322.299 361.875 322.478 362.054C322.656 362.232 322.945 362.232 323.123 362.054L325.996 359.181L328.869 362.054C329.047 362.232 329.336 362.232 329.515 362.054C329.693 361.875 329.693 361.586 329.515 361.408L326.642 358.535Z" fill="#1A1A1A"/>
</g>
<path fill-rule="evenodd" clip-rule="evenodd" d="M347.91 374.971H340.605V367.666C340.605 371.699 343.876 374.969 347.91 374.971Z" fill="white"/>
<path d="M358.91 349.404C358.91 345.37 362.181 342.099 366.215 342.099H565.269C569.303 342.099 572.574 345.37 572.574 349.404V374.971H358.91V349.404Z" fill="white"/>
<path d="M370.324 358.535C370.324 362.569 373.595 365.84 377.629 365.84C381.663 365.84 384.934 362.569 384.934 358.535C384.934 354.501 381.663 351.23 377.629 351.23C373.595 351.23 370.324 354.501 370.324 358.535Z" fill="#6FCF97"/>
<rect x="392.695" y="353.741" width="77" height="9.58747" rx="4.79374" fill="#E6E6E6"/>
<g clip-path="url(#clip25_61_9274)">
<path d="M558.61 358.535L561.483 355.662C561.662 355.484 561.662 355.195 561.483 355.017C561.305 354.838 561.016 354.838 560.838 355.017L557.965 357.89L555.092 355.017C554.914 354.838 554.625 354.838 554.446 355.017C554.268 355.195 554.268 355.484 554.446 355.662L557.319 358.535L554.446 361.408C554.268 361.586 554.268 361.875 554.446 362.054C554.625 362.232 554.914 362.232 555.092 362.054L557.965 359.181L560.838 362.054C561.016 362.232 561.305 362.232 561.483 362.054C561.662 361.875 561.662 361.586 561.483 361.408L558.61 358.535Z" fill="#1A1A1A"/>
</g>
<path d="M583.574 349.404C583.574 345.37 586.845 342.099 590.879 342.099H789.933C793.967 342.099 797.238 345.37 797.238 349.404V374.971H583.574V349.404Z" fill="white"/>
<path d="M594.988 358.535C594.988 362.569 598.259 365.84 602.293 365.84C606.327 365.84 609.598 362.569 609.598 358.535C609.598 354.501 606.327 351.23 602.293 351.23C598.259 351.23 594.988 354.501 594.988 358.535Z" fill="#56CCF2"/>
<rect x="617.359" y="353.741" width="77" height="9.58747" rx="4.79374" fill="#E6E6E6"/>
<g clip-path="url(#clip26_61_9274)">
<path d="M783.274 358.535L786.148 355.662C786.326 355.484 786.326 355.195 786.148 355.017C785.969 354.838 785.68 354.838 785.502 355.017L782.629 357.89L779.756 355.017C779.578 354.838 779.289 354.838 779.11 355.017C778.932 355.195 778.932 355.484 779.11 355.662L781.983 358.535L779.11 361.408C778.932 361.586 778.932 361.875 779.11 362.054C779.289 362.232 779.578 362.232 779.756 362.054L782.629 359.181L785.502 362.054C785.68 362.232 785.969 362.232 786.148 362.054C786.326 361.875 786.326 361.586 786.148 361.408L783.274 358.535Z" fill="#1A1A1A"/>
</g>
<path d="M808.236 349.404C808.236 345.37 811.507 342.099 815.541 342.099H1014.6C1018.63 342.099 1021.9 345.37 1021.9 349.404V374.971H808.236V349.404Z" fill="white"/>
<path d="M819.65 358.535C819.65 362.569 822.921 365.84 826.955 365.84C830.989 365.84 834.26 362.569 834.26 358.535C834.26 354.501 830.989 351.23 826.955 351.23C822.921 351.23 819.65 354.501 819.65 358.535Z" fill="#BB6BD9"/>
<rect x="842.021" y="353.741" width="77" height="9.58747" rx="4.79374" fill="#E6E6E6"/>
<g clip-path="url(#clip27_61_9274)">
<path d="M1007.94 358.535L1010.81 355.662C1010.99 355.484 1010.99 355.195 1010.81 355.017C1010.63 354.838 1010.34 354.838 1010.16 355.017L1007.29 357.89L1004.42 355.017C1004.24 354.838 1003.95 354.838 1003.77 355.017C1003.59 355.195 1003.59 355.484 1003.77 355.662L1006.65 358.535L1003.77 361.408C1003.59 361.586 1003.59 361.875 1003.77 362.054C1003.95 362.232 1004.24 362.232 1004.42 362.054L1007.29 359.181L1010.16 362.054C1010.34 362.232 1010.63 362.232 1010.81 362.054C1010.99 361.875 1010.99 361.586 1010.81 361.408L1007.94 358.535Z" fill="#1A1A1A"/>
</g>
<path d="M1032.9 349.404C1032.9 345.37 1036.17 342.099 1040.21 342.099H1239.26C1243.29 342.099 1246.56 345.37 1246.56 349.404V374.971H1032.9V349.404Z" fill="white"/>
<path d="M1044.31 358.535C1044.31 362.569 1047.58 365.84 1051.62 365.84C1055.65 365.84 1058.92 362.569 1058.92 358.535C1058.92 354.501 1055.65 351.23 1051.62 351.23C1047.58 351.23 1044.31 354.501 1044.31 358.535Z" fill="#F2C94C"/>
<rect x="1066.69" y="353.741" width="77" height="9.58747" rx="4.79374" fill="#E6E6E6"/>
<g clip-path="url(#clip28_61_9274)">
<path d="M1232.6 358.535L1235.47 355.662C1235.65 355.484 1235.65 355.195 1235.47 355.017C1235.3 354.838 1235.01 354.838 1234.83 355.017L1231.96 357.89L1229.08 355.017C1228.9 354.838 1228.61 354.838 1228.44 355.017C1228.26 355.195 1228.26 355.484 1228.44 355.662L1231.31 358.535L1228.44 361.408C1228.26 361.586 1228.26 361.875 1228.44 362.054C1228.61 362.232 1228.9 362.232 1229.08 362.054L1231.96 359.181L1234.83 362.054C1235.01 362.232 1235.3 362.232 1235.47 362.054C1235.65 361.875 1235.65 361.586 1235.47 361.408L1232.6 358.535Z" fill="#1A1A1A"/>
</g>
<path d="M1257.56 349.404C1257.56 345.37 1260.83 342.099 1264.87 342.099H1463.92C1467.96 342.099 1471.23 345.37 1471.23 349.404V374.971H1257.56V349.404Z" fill="white"/>
<path d="M1268.98 358.535C1268.98 362.569 1272.25 365.84 1276.28 365.84C1280.32 365.84 1283.59 362.569 1283.59 358.535C1283.59 354.501 1280.32 351.23 1276.28 351.23C1272.25 351.23 1268.98 354.501 1268.98 358.535Z" fill="#FF9797"/>
<rect x="1291.35" y="353.741" width="77" height="9.58747" rx="4.79374" fill="#E6E6E6"/>
<g clip-path="url(#clip29_61_9274)">
<path d="M1457.26 358.535L1460.14 355.662C1460.32 355.484 1460.32 355.195 1460.14 355.017C1459.96 354.838 1459.67 354.838 1459.49 355.017L1456.62 357.89L1453.75 355.017C1453.57 354.838 1453.28 354.838 1453.1 355.017C1452.92 355.195 1452.92 355.484 1453.1 355.662L1455.97 358.535L1453.1 361.408C1452.92 361.586 1452.92 361.875 1453.1 362.054C1453.28 362.232 1453.57 362.232 1453.75 362.054L1456.62 359.181L1459.49 362.054C1459.67 362.232 1459.96 362.232 1460.14 362.054C1460.32 361.875 1460.32 361.586 1460.14 361.408L1457.26 358.535Z" fill="#1A1A1A"/>
</g>
<path d="M239.273 398.275C239.273 394.241 242.544 390.971 246.578 390.971H445.632C449.667 390.971 452.937 394.241 452.937 398.275V423.842H239.273V398.275Z" fill="white"/>
<path d="M250.688 407.406C250.688 411.441 253.958 414.711 257.992 414.711C262.027 414.711 265.297 411.441 265.297 407.406C265.297 403.372 262.027 400.102 257.992 400.102C253.958 400.102 250.688 403.372 250.688 407.406Z" fill="#6FCF97"/>
<rect x="273.059" y="402.613" width="77" height="9.58747" rx="4.79374" fill="#E6E6E6"/>
<g clip-path="url(#clip30_61_9274)">
<path d="M438.974 407.407L441.847 404.534C442.025 404.355 442.025 404.066 441.847 403.888C441.668 403.71 441.379 403.71 441.201 403.888L438.328 406.761L435.455 403.888C435.277 403.71 434.988 403.71 434.81 403.888C434.631 404.066 434.631 404.355 434.81 404.534L437.683 407.407L434.81 410.279C434.631 410.458 434.631 410.747 434.81 410.925C434.988 411.103 435.277 411.103 435.455 410.925L438.328 408.052L441.201 410.925C441.379 411.103 441.668 411.103 441.847 410.925C442.025 410.747 442.025 410.458 441.847 410.279L438.974 407.407Z" fill="#1A1A1A"/>
</g>
<path d="M463.938 398.275C463.938 394.241 467.208 390.971 471.242 390.971H670.296C674.331 390.971 677.601 394.241 677.601 398.275V423.842H463.938V398.275Z" fill="white"/>
<path d="M475.352 407.406C475.352 411.441 478.622 414.711 482.656 414.711C486.691 414.711 489.961 411.441 489.961 407.406C489.961 403.372 486.691 400.102 482.656 400.102C478.622 400.102 475.352 403.372 475.352 407.406Z" fill="#56CCF2"/>
<rect x="497.723" y="402.613" width="77" height="9.58747" rx="4.79374" fill="#E6E6E6"/>
<g clip-path="url(#clip31_61_9274)">
<path d="M663.638 407.407L666.511 404.534C666.689 404.355 666.689 404.066 666.511 403.888C666.332 403.71 666.043 403.71 665.865 403.888L662.992 406.761L660.119 403.888C659.941 403.71 659.652 403.71 659.474 403.888C659.295 404.066 659.295 404.355 659.474 404.534L662.347 407.407L659.474 410.279C659.295 410.458 659.295 410.747 659.474 410.925C659.652 411.103 659.941 411.103 660.119 410.925L662.992 408.052L665.865 410.925C666.043 411.103 666.332 411.103 666.511 410.925C666.689 410.747 666.689 410.458 666.511 410.279L663.638 407.407Z" fill="#1A1A1A"/>
</g>
<path d="M688.602 398.275C688.602 394.241 691.872 390.971 695.906 390.971H894.96C898.995 390.971 902.265 394.241 902.265 398.275V423.842H688.602V398.275Z" fill="white"/>
<path d="M700.016 407.406C700.016 411.441 703.286 414.711 707.32 414.711C711.355 414.711 714.625 411.441 714.625 407.406C714.625 403.372 711.355 400.102 707.32 400.102C703.286 400.102 700.016 403.372 700.016 407.406Z" fill="#BB6BD9"/>
<rect x="722.387" y="402.613" width="77" height="9.58747" rx="4.79374" fill="#E6E6E6"/>
<g clip-path="url(#clip32_61_9274)">
<path d="M888.302 407.407L891.175 404.534C891.353 404.355 891.353 404.066 891.175 403.888C890.997 403.71 890.707 403.71 890.529 403.888L887.656 406.761L884.783 403.888C884.605 403.71 884.316 403.71 884.138 403.888C883.959 404.066 883.959 404.355 884.138 404.534L887.011 407.407L884.138 410.279C883.959 410.458 883.959 410.747 884.138 410.925C884.316 411.103 884.605 411.103 884.783 410.925L887.656 408.052L890.529 410.925C890.707 411.103 890.997 411.103 891.175 410.925C891.353 410.747 891.353 410.458 891.175 410.279L888.302 407.407Z" fill="#1A1A1A"/>
</g>
<path d="M913.264 398.275C913.264 394.241 916.534 390.971 920.568 390.971H1119.62C1123.66 390.971 1126.93 394.241 1126.93 398.275V423.842H913.264V398.275Z" fill="white"/>
<path d="M924.678 407.406C924.678 411.441 927.948 414.711 931.982 414.711C936.017 414.711 939.287 411.441 939.287 407.406C939.287 403.372 936.017 400.102 931.982 400.102C927.948 400.102 924.678 403.372 924.678 407.406Z" fill="#F2C94C"/>
<rect x="947.049" y="402.613" width="77" height="9.58747" rx="4.79374" fill="#E6E6E6"/>
<g clip-path="url(#clip33_61_9274)">
<path d="M1112.96 407.407L1115.84 404.534C1116.02 404.355 1116.02 404.066 1115.84 403.888C1115.66 403.71 1115.37 403.71 1115.19 403.888L1112.32 406.761L1109.45 403.888C1109.27 403.71 1108.98 403.71 1108.8 403.888C1108.62 404.066 1108.62 404.355 1108.8 404.534L1111.67 407.407L1108.8 410.279C1108.62 410.458 1108.62 410.747 1108.8 410.925C1108.98 411.103 1109.27 411.103 1109.45 410.925L1112.32 408.052L1115.19 410.925C1115.37 411.103 1115.66 411.103 1115.84 410.925C1116.02 410.747 1116.02 410.458 1115.84 410.279L1112.96 407.407Z" fill="#1A1A1A"/>
</g>
<path d="M1137.93 398.275C1137.93 394.241 1141.2 390.971 1145.23 390.971H1344.29C1348.32 390.971 1351.59 394.241 1351.59 398.275V423.842H1137.93V398.275Z" fill="white"/>
<path d="M1149.34 407.406C1149.34 411.441 1152.61 414.711 1156.65 414.711C1160.68 414.711 1163.95 411.441 1163.95 407.406C1163.95 403.372 1160.68 400.102 1156.65 400.102C1152.61 400.102 1149.34 403.372 1149.34 407.406Z" fill="#FF9797"/>
<rect x="1171.71" y="402.613" width="77" height="9.58747" rx="4.79374" fill="#E6E6E6"/>
<g clip-path="url(#clip34_61_9274)">
<path d="M1337.63 407.407L1340.5 404.534C1340.68 404.355 1340.68 404.066 1340.5 403.888C1340.32 403.71 1340.03 403.71 1339.86 403.888L1336.98 406.761L1334.11 403.888C1333.93 403.71 1333.64 403.71 1333.46 403.888C1333.29 404.066 1333.29 404.355 1333.46 404.534L1336.34 407.407L1333.46 410.279C1333.29 410.458 1333.29 410.747 1333.46 410.925C1333.64 411.103 1333.93 411.103 1334.11 410.925L1336.98 408.052L1339.86 410.925C1340.03 411.103 1340.32 411.103 1340.5 410.925C1340.68 410.747 1340.68 410.458 1340.5 410.279L1337.63 407.407Z" fill="#1A1A1A"/>
</g>
<path d="M119.637 447.147C119.637 443.112 122.907 439.842 126.941 439.842H325.996C330.03 439.842 333.3 443.112 333.3 447.147V472.713H119.637V447.147Z" fill="white"/>
<path d="M131.051 456.278C131.051 460.312 134.321 463.582 138.356 463.582C142.39 463.582 145.66 460.312 145.66 456.278C145.66 452.243 142.39 448.973 138.356 448.973C134.321 448.973 131.051 452.243 131.051 456.278Z" fill="#6FCF97"/>
<rect x="153.422" y="451.484" width="77" height="9.58747" rx="4.79374" fill="#E6E6E6"/>
<g clip-path="url(#clip35_61_9274)">
<path d="M319.337 456.278L322.21 453.405C322.388 453.227 322.388 452.938 322.21 452.759C322.032 452.581 321.743 452.581 321.564 452.759L318.691 455.632L315.819 452.759C315.64 452.581 315.351 452.581 315.173 452.759C314.994 452.938 314.994 453.227 315.173 453.405L318.046 456.278L315.173 459.151C314.994 459.329 314.994 459.618 315.173 459.796C315.351 459.975 315.64 459.975 315.819 459.796L318.691 456.923L321.564 459.796C321.743 459.975 322.032 459.975 322.21 459.796C322.388 459.618 322.388 459.329 322.21 459.151L319.337 456.278Z" fill="#1A1A1A"/>
</g>
<path d="M344.301 447.147C344.301 443.112 347.571 439.842 351.606 439.842H550.66C554.694 439.842 557.964 443.112 557.964 447.147V472.713H344.301V447.147Z" fill="white"/>
<path d="M355.715 456.278C355.715 460.312 358.985 463.582 363.02 463.582C367.054 463.582 370.324 460.312 370.324 456.278C370.324 452.243 367.054 448.973 363.02 448.973C358.985 448.973 355.715 452.243 355.715 456.278Z" fill="#56CCF2"/>
<rect x="378.086" y="451.484" width="77" height="9.58747" rx="4.79374" fill="#E6E6E6"/>
<g clip-path="url(#clip36_61_9274)">
<path d="M544.001 456.278L546.874 453.405C547.052 453.227 547.052 452.938 546.874 452.759C546.696 452.581 546.407 452.581 546.228 452.759L543.355 455.632L540.483 452.759C540.304 452.581 540.015 452.581 539.837 452.759C539.659 452.938 539.659 453.227 539.837 453.405L542.71 456.278L539.837 459.151C539.659 459.329 539.659 459.618 539.837 459.796C540.015 459.975 540.304 459.975 540.483 459.796L543.355 456.923L546.228 459.796C546.407 459.975 546.696 459.975 546.874 459.796C547.052 459.618 547.052 459.329 546.874 459.151L544.001 456.278Z" fill="#1A1A1A"/>
</g>
<path d="M568.965 447.147C568.965 443.112 572.235 439.842 576.27 439.842H775.324C779.358 439.842 782.629 443.112 782.629 447.147V472.713H568.965V447.147Z" fill="white"/>
<path d="M580.379 456.278C580.379 460.312 583.649 463.582 587.684 463.582C591.718 463.582 594.988 460.312 594.988 456.278C594.988 452.243 591.718 448.973 587.684 448.973C583.649 448.973 580.379 452.243 580.379 456.278Z" fill="#F2C94C"/>
<rect x="602.75" y="451.484" width="77" height="9.58747" rx="4.79374" fill="#E6E6E6"/>
<g clip-path="url(#clip37_61_9274)">
<path d="M768.665 456.278L771.538 453.405C771.717 453.227 771.717 452.938 771.538 452.759C771.36 452.581 771.071 452.581 770.892 452.759L768.02 455.632L765.147 452.759C764.968 452.581 764.679 452.581 764.501 452.759C764.323 452.938 764.323 453.227 764.501 453.405L767.374 456.278L764.501 459.151C764.323 459.329 764.323 459.618 764.501 459.796C764.679 459.975 764.968 459.975 765.147 459.796L768.02 456.923L770.892 459.796C771.071 459.975 771.36 459.975 771.538 459.796C771.717 459.618 771.717 459.329 771.538 459.151L768.665 456.278Z" fill="#1A1A1A"/>
</g>
<path d="M793.627 447.147C793.627 443.112 796.897 439.842 800.932 439.842H999.986C1004.02 439.842 1007.29 443.112 1007.29 447.147V472.713H793.627V447.147Z" fill="white"/>
<path d="M805.041 456.278C805.041 460.312 808.311 463.582 812.346 463.582C816.38 463.582 819.65 460.312 819.65 456.278C819.65 452.243 816.38 448.973 812.346 448.973C808.311 448.973 805.041 452.243 805.041 456.278Z" fill="#FF9797"/>
<rect x="827.412" y="451.484" width="77" height="9.58747" rx="4.79374" fill="#E6E6E6"/>
<g clip-path="url(#clip38_61_9274)">
<path d="M993.327 456.278L996.2 453.405C996.379 453.227 996.379 452.938 996.2 452.759C996.022 452.581 995.733 452.581 995.554 452.759L992.682 455.632L989.809 452.759C989.631 452.581 989.341 452.581 989.163 452.759C988.985 452.938 988.985 453.227 989.163 453.405L992.036 456.278L989.163 459.151C988.985 459.329 988.985 459.618 989.163 459.796C989.341 459.975 989.631 459.975 989.809 459.796L992.682 456.923L995.554 459.796C995.733 459.975 996.022 459.975 996.2 459.796C996.379 459.618 996.379 459.329 996.2 459.151L993.327 456.278Z" fill="#1A1A1A"/>
</g>
<path fill-rule="evenodd" clip-rule="evenodd" d="M1018.29 472.713H1025.6V465.409C1025.6 469.442 1022.33 472.712 1018.29 472.713Z" fill="white"/>
<path d="M1025.6 447.147C1025.6 443.112 1028.87 439.842 1032.9 439.842H1231.95C1235.99 439.842 1239.26 443.112 1239.26 447.147V472.713H1025.6V447.147Z" fill="white"/>
<path d="M1037.01 456.278C1037.01 460.312 1040.28 463.582 1044.31 463.582C1048.35 463.582 1051.62 460.312 1051.62 456.278C1051.62 452.243 1048.35 448.973 1044.31 448.973C1040.28 448.973 1037.01 452.243 1037.01 456.278Z" fill="#F2994A"/>
<rect x="1059.38" y="451.484" width="77" height="9.58747" rx="4.79374" fill="#E6E6E6"/>
<g clip-path="url(#clip39_61_9274)">
<path d="M1225.3 456.278L1228.17 453.405C1228.35 453.227 1228.35 452.938 1228.17 452.759C1227.99 452.581 1227.7 452.581 1227.52 452.759L1224.65 455.632L1221.78 452.759C1221.6 452.581 1221.31 452.581 1221.13 452.759C1220.95 452.938 1220.95 453.227 1221.13 453.405L1224 456.278L1221.13 459.151C1220.95 459.329 1220.95 459.618 1221.13 459.796C1221.31 459.975 1221.6 459.975 1221.78 459.796L1224.65 456.923L1227.52 459.796C1227.7 459.975 1227.99 459.975 1228.17 459.796C1228.35 459.618 1228.35 459.329 1228.17 459.151L1225.3 456.278Z" fill="#1A1A1A"/>
</g>
<path fill-rule="evenodd" clip-rule="evenodd" d="M1246.56 472.713H1239.26V465.409C1239.26 469.442 1242.53 472.712 1246.56 472.713Z" fill="white"/>
<path d="M1257.56 447.147C1257.56 443.112 1260.83 439.842 1264.87 439.842H1463.92C1467.96 439.842 1471.23 443.112 1471.23 447.147V472.713H1257.56V447.147Z" fill="white"/>
<path d="M1268.98 456.278C1268.98 460.312 1272.25 463.582 1276.28 463.582C1280.32 463.582 1283.59 460.312 1283.59 456.278C1283.59 452.243 1280.32 448.973 1276.28 448.973C1272.25 448.973 1268.98 452.243 1268.98 456.278Z" fill="#BB6BD9"/>
<rect x="1291.35" y="451.484" width="77" height="9.58747" rx="4.79374" fill="#E6E6E6"/>
<g clip-path="url(#clip40_61_9274)">
<path d="M1457.26 456.278L1460.14 453.405C1460.32 453.227 1460.32 452.938 1460.14 452.759C1459.96 452.581 1459.67 452.581 1459.49 452.759L1456.62 455.632L1453.75 452.759C1453.57 452.581 1453.28 452.581 1453.1 452.759C1452.92 452.938 1452.92 453.227 1453.1 453.405L1455.97 456.278L1453.1 459.151C1452.92 459.329 1452.92 459.618 1453.1 459.796C1453.28 459.975 1453.57 459.975 1453.75 459.796L1456.62 456.923L1459.49 459.796C1459.67 459.975 1459.96 459.975 1460.14 459.796C1460.32 459.618 1460.32 459.329 1460.14 459.151L1457.26 456.278Z" fill="#1A1A1A"/>
</g>
<path fill-rule="evenodd" clip-rule="evenodd" d="M0 521.585H7.30474L7.30474 514.28C7.30474 518.313 4.03458 521.583 0 521.585Z" fill="white"/>
<path d="M7.30469 496.018C7.30469 491.984 10.5751 488.713 14.6094 488.713H213.664C217.698 488.713 220.968 491.984 220.968 496.018V521.585H7.30469V496.018Z" fill="white"/>
<path d="M18.7188 505.149C18.7188 509.183 21.9892 512.454 26.0235 512.454C30.0578 512.454 33.3282 509.183 33.3282 505.149C33.3282 501.115 30.0578 497.844 26.0235 497.844C21.9892 497.844 18.7188 501.115 18.7188 505.149Z" fill="#F2994A"/>
<rect x="41.0898" y="500.355" width="77" height="9.58747" rx="4.79374" fill="#E6E6E6"/>
<g clip-path="url(#clip41_61_9274)">
<path d="M207.005 505.149L209.878 502.276C210.056 502.098 210.056 501.809 209.878 501.631C209.7 501.452 209.411 501.452 209.232 501.631L206.359 504.504L203.487 501.631C203.308 501.452 203.019 501.452 202.841 501.631C202.662 501.809 202.662 502.098 202.841 502.276L205.714 505.149L202.841 508.022C202.662 508.2 202.662 508.489 202.841 508.668C203.019 508.846 203.308 508.846 203.487 508.668L206.359 505.795L209.232 508.668C209.411 508.846 209.7 508.846 209.878 508.668C210.056 508.489 210.056 508.2 209.878 508.022L207.005 505.149Z" fill="#1A1A1A"/>
</g>
<path fill-rule="evenodd" clip-rule="evenodd" d="M228.273 521.585H220.969V514.28C220.969 518.313 224.239 521.583 228.273 521.585Z" fill="white"/>
<path d="M239.273 496.018C239.273 491.984 242.544 488.713 246.578 488.713H445.632C449.667 488.713 452.937 491.984 452.937 496.018V521.585H239.273V496.018Z" fill="white"/>
<path d="M250.688 505.149C250.688 509.183 253.958 512.454 257.992 512.454C262.027 512.454 265.297 509.183 265.297 505.149C265.297 501.115 262.027 497.844 257.992 497.844C253.958 497.844 250.688 501.115 250.688 505.149Z" fill="#6FCF97"/>
<rect x="273.059" y="500.355" width="77" height="9.58747" rx="4.79374" fill="#E6E6E6"/>
<g clip-path="url(#clip42_61_9274)">
<path d="M438.974 505.149L441.847 502.276C442.025 502.098 442.025 501.809 441.847 501.631C441.668 501.452 441.379 501.452 441.201 501.631L438.328 504.504L435.455 501.631C435.277 501.452 434.988 501.452 434.81 501.631C434.631 501.809 434.631 502.098 434.81 502.276L437.683 505.149L434.81 508.022C434.631 508.2 434.631 508.489 434.81 508.668C434.988 508.846 435.277 508.846 435.455 508.668L438.328 505.795L441.201 508.668C441.379 508.846 441.668 508.846 441.847 508.668C442.025 508.489 442.025 508.2 441.847 508.022L438.974 505.149Z" fill="#1A1A1A"/>
</g>
<path d="M463.938 496.018C463.938 491.984 467.208 488.713 471.242 488.713H670.296C674.331 488.713 677.601 491.984 677.601 496.018V521.585H463.938V496.018Z" fill="white"/>
<path d="M475.352 505.149C475.352 509.183 478.622 512.454 482.656 512.454C486.691 512.454 489.961 509.183 489.961 505.149C489.961 501.115 486.691 497.844 482.656 497.844C478.622 497.844 475.352 501.115 475.352 505.149Z" fill="#56CCF2"/>
<rect x="497.723" y="500.355" width="77" height="9.58747" rx="4.79374" fill="#E6E6E6"/>
<g clip-path="url(#clip43_61_9274)">
<path d="M663.638 505.149L666.511 502.276C666.689 502.098 666.689 501.809 666.511 501.631C666.332 501.452 666.043 501.452 665.865 501.631L662.992 504.504L660.119 501.631C659.941 501.452 659.652 501.452 659.474 501.631C659.295 501.809 659.295 502.098 659.474 502.276L662.347 505.149L659.474 508.022C659.295 508.2 659.295 508.489 659.474 508.668C659.652 508.846 659.941 508.846 660.119 508.668L662.992 505.795L665.865 508.668C666.043 508.846 666.332 508.846 666.511 508.668C666.689 508.489 666.689 508.2 666.511 508.022L663.638 505.149Z" fill="#1A1A1A"/>
</g>
<path d="M688.6 496.018C688.6 491.984 691.87 488.713 695.904 488.713H894.959C898.993 488.713 902.263 491.984 902.263 496.018V521.585H688.6V496.018Z" fill="white"/>
<path d="M700.014 505.149C700.014 509.183 703.284 512.454 707.318 512.454C711.353 512.454 714.623 509.183 714.623 505.149C714.623 501.115 711.353 497.844 707.318 497.844C703.284 497.844 700.014 501.115 700.014 505.149Z" fill="#FF9797"/>
<rect x="722.385" y="500.355" width="77" height="9.58747" rx="4.79374" fill="#E6E6E6"/>
<g clip-path="url(#clip44_61_9274)">
<path d="M888.3 505.149L891.173 502.276C891.351 502.098 891.351 501.809 891.173 501.631C890.995 501.452 890.705 501.452 890.527 501.631L887.654 504.504L884.782 501.631C884.603 501.452 884.314 501.452 884.136 501.631C883.957 501.809 883.957 502.098 884.136 502.276L887.009 505.149L884.136 508.022C883.957 508.2 883.957 508.489 884.136 508.668C884.314 508.846 884.603 508.846 884.782 508.668L887.654 505.795L890.527 508.668C890.705 508.846 890.995 508.846 891.173 508.668C891.351 508.489 891.351 508.2 891.173 508.022L888.3 505.149Z" fill="#1A1A1A"/>
</g>
<path d="M913.264 496.018C913.264 491.984 916.534 488.713 920.568 488.713H1119.62C1123.66 488.713 1126.93 491.984 1126.93 496.018V521.585H913.264V496.018Z" fill="white"/>
<path d="M924.678 505.149C924.678 509.183 927.948 512.454 931.982 512.454C936.017 512.454 939.287 509.183 939.287 505.149C939.287 501.115 936.017 497.844 931.982 497.844C927.948 497.844 924.678 501.115 924.678 505.149Z" fill="#BB6BD9"/>
<rect x="947.049" y="500.355" width="77" height="9.58747" rx="4.79374" fill="#E6E6E6"/>
<g clip-path="url(#clip45_61_9274)">
<path d="M1112.96 505.149L1115.84 502.276C1116.02 502.098 1116.02 501.809 1115.84 501.631C1115.66 501.452 1115.37 501.452 1115.19 501.631L1112.32 504.504L1109.45 501.631C1109.27 501.452 1108.98 501.452 1108.8 501.631C1108.62 501.809 1108.62 502.098 1108.8 502.276L1111.67 505.149L1108.8 508.022C1108.62 508.2 1108.62 508.489 1108.8 508.668C1108.98 508.846 1109.27 508.846 1109.45 508.668L1112.32 505.795L1115.19 508.668C1115.37 508.846 1115.66 508.846 1115.84 508.668C1116.02 508.489 1116.02 508.2 1115.84 508.022L1112.96 505.149Z" fill="#1A1A1A"/>
</g>
<path d="M1137.93 496.018C1137.93 491.984 1141.2 488.713 1145.23 488.713H1344.29C1348.32 488.713 1351.59 491.984 1351.59 496.018V521.585H1137.93V496.018Z" fill="white"/>
<path d="M1149.34 505.149C1149.34 509.183 1152.61 512.454 1156.65 512.454C1160.68 512.454 1163.95 509.183 1163.95 505.149C1163.95 501.115 1160.68 497.844 1156.65 497.844C1152.61 497.844 1149.34 501.115 1149.34 505.149Z" fill="#F2C94C"/>
<rect x="1171.71" y="500.355" width="77" height="9.58747" rx="4.79374" fill="#E6E6E6"/>
<g clip-path="url(#clip46_61_9274)">
<path d="M1337.63 505.149L1340.5 502.276C1340.68 502.098 1340.68 501.809 1340.5 501.631C1340.32 501.452 1340.03 501.452 1339.86 501.631L1336.98 504.504L1334.11 501.631C1333.93 501.452 1333.64 501.452 1333.46 501.631C1333.29 501.809 1333.29 502.098 1333.46 502.276L1336.34 505.149L1333.46 508.022C1333.29 508.2 1333.29 508.489 1333.46 508.668C1333.64 508.846 1333.93 508.846 1334.11 508.668L1336.98 505.795L1339.86 508.668C1340.03 508.846 1340.32 508.846 1340.5 508.668C1340.68 508.489 1340.68 508.2 1340.5 508.022L1337.63 505.149Z" fill="#1A1A1A"/>
</g>
<path fill-rule="evenodd" clip-rule="evenodd" d="M1362.59 521.585H1369.9V514.28C1369.9 518.313 1366.63 521.583 1362.59 521.585Z" fill="white"/>
<path d="M1369.9 496.018C1369.9 491.984 1373.17 488.713 1377.2 488.713H1576.26C1580.29 488.713 1583.56 491.984 1583.56 496.018V521.585H1369.9V496.018Z" fill="white"/>
<path d="M1381.31 505.149C1381.31 509.183 1384.58 512.454 1388.62 512.454C1392.65 512.454 1395.92 509.183 1395.92 505.149C1395.92 501.115 1392.65 497.844 1388.62 497.844C1384.58 497.844 1381.31 501.115 1381.31 505.149Z" fill="#F2994A"/>
<rect x="1403.68" y="500.355" width="77" height="9.58747" rx="4.79374" fill="#E6E6E6"/>
<g clip-path="url(#clip47_61_9274)">
<path d="M1569.6 505.149L1572.47 502.276C1572.65 502.098 1572.65 501.809 1572.47 501.631C1572.29 501.452 1572 501.452 1571.82 501.631L1568.95 504.504L1566.08 501.631C1565.9 501.452 1565.61 501.452 1565.43 501.631C1565.25 501.809 1565.25 502.098 1565.43 502.276L1568.31 505.149L1565.43 508.022C1565.25 508.2 1565.25 508.489 1565.43 508.668C1565.61 508.846 1565.9 508.846 1566.08 508.668L1568.95 505.795L1571.82 508.668C1572 508.846 1572.29 508.846 1572.47 508.668C1572.65 508.489 1572.65 508.2 1572.47 508.022L1569.6 505.149Z" fill="#1A1A1A"/>
</g>
<path fill-rule="evenodd" clip-rule="evenodd" d="M1590.87 521.585H1583.56V514.28C1583.56 518.313 1586.83 521.583 1590.87 521.585Z" fill="white"/>
<defs>
<clipPath id="clip0_61_9274">
<rect width="7.30474" height="7.30474" fill="white" transform="translate(884.002 12.7832)"/>
</clipPath>
<clipPath id="clip1_61_9274">
<rect width="7.30474" height="7.30474" fill="white" transform="translate(771.672 61.6543)"/>
</clipPath>
<clipPath id="clip2_61_9274">
<rect width="7.30474" height="7.30474" fill="white" transform="translate(996.336 61.6543)"/>
</clipPath>
<clipPath id="clip3_61_9274">
<rect width="7.30474" height="7.30474" fill="white" transform="translate(659.34 110.526)"/>
</clipPath>
<clipPath id="clip4_61_9274">
<rect width="7.30474" height="7.30474" fill="white" transform="translate(884.004 110.526)"/>
</clipPath>
<clipPath id="clip5_61_9274">
<rect width="7.30474" height="7.30474" fill="white" transform="translate(1108.67 110.526)"/>
</clipPath>
<clipPath id="clip6_61_9274">
<rect width="7.30474" height="7.30474" fill="white" transform="translate(547.008 159.397)"/>
</clipPath>
<clipPath id="clip7_61_9274">
<rect width="7.30474" height="7.30474" fill="white" transform="translate(778.977 159.397)"/>
</clipPath>
<clipPath id="clip8_61_9274">
<rect width="7.30474" height="7.30474" fill="white" transform="translate(1003.64 159.397)"/>
</clipPath>
<clipPath id="clip9_61_9274">
<rect width="7.30474" height="7.30474" fill="white" transform="translate(1228.3 159.397)"/>
</clipPath>
<clipPath id="clip10_61_9274">
<rect width="7.30474" height="7.30474" fill="white" transform="translate(427.371 208.269)"/>
</clipPath>
<clipPath id="clip11_61_9274">
<rect width="7.30474" height="7.30474" fill="white" transform="translate(652.035 208.269)"/>
</clipPath>
<clipPath id="clip12_61_9274">
<rect width="7.30474" height="7.30474" fill="white" transform="translate(884.004 208.269)"/>
</clipPath>
<clipPath id="clip13_61_9274">
<rect width="7.30474" height="7.30474" fill="white" transform="translate(1115.97 208.269)"/>
</clipPath>
<clipPath id="clip14_61_9274">
<rect width="7.30474" height="7.30474" fill="white" transform="translate(1340.63 208.269)"/>
</clipPath>
<clipPath id="clip15_61_9274">
<rect width="7.30474" height="7.30474" fill="white" transform="translate(539.703 257.14)"/>
</clipPath>
<clipPath id="clip16_61_9274">
<rect width="7.30474" height="7.30474" fill="white" transform="translate(771.672 257.14)"/>
</clipPath>
<clipPath id="clip17_61_9274">
<rect width="7.30474" height="7.30474" fill="white" transform="translate(1003.64 257.14)"/>
</clipPath>
<clipPath id="clip18_61_9274">
<rect width="7.30474" height="7.30474" fill="white" transform="translate(1228.3 257.14)"/>
</clipPath>
<clipPath id="clip19_61_9274">
<rect width="7.30474" height="7.30474" fill="white" transform="translate(434.676 306.011)"/>
</clipPath>
<clipPath id="clip20_61_9274">
<rect width="7.30474" height="7.30474" fill="white" transform="translate(666.645 306.011)"/>
</clipPath>
<clipPath id="clip21_61_9274">
<rect width="7.30474" height="7.30474" fill="white" transform="translate(891.309 306.011)"/>
</clipPath>
<clipPath id="clip22_61_9274">
<rect width="7.30474" height="7.30474" fill="white" transform="translate(1115.97 306.011)"/>
</clipPath>
<clipPath id="clip23_61_9274">
<rect width="7.30474" height="7.30474" fill="white" transform="translate(1340.63 306.011)"/>
</clipPath>
<clipPath id="clip24_61_9274">
<rect width="7.30474" height="7.30474" fill="white" transform="translate(322.344 354.883)"/>
</clipPath>
<clipPath id="clip25_61_9274">
<rect width="7.30474" height="7.30474" fill="white" transform="translate(554.312 354.883)"/>
</clipPath>
<clipPath id="clip26_61_9274">
<rect width="7.30474" height="7.30474" fill="white" transform="translate(778.977 354.883)"/>
</clipPath>
<clipPath id="clip27_61_9274">
<rect width="7.30474" height="7.30474" fill="white" transform="translate(1003.64 354.883)"/>
</clipPath>
<clipPath id="clip28_61_9274">
<rect width="7.30474" height="7.30474" fill="white" transform="translate(1228.3 354.883)"/>
</clipPath>
<clipPath id="clip29_61_9274">
<rect width="7.30474" height="7.30474" fill="white" transform="translate(1452.97 354.883)"/>
</clipPath>
<clipPath id="clip30_61_9274">
<rect width="7.30474" height="7.30474" fill="white" transform="translate(434.676 403.754)"/>
</clipPath>
<clipPath id="clip31_61_9274">
<rect width="7.30474" height="7.30474" fill="white" transform="translate(659.34 403.754)"/>
</clipPath>
<clipPath id="clip32_61_9274">
<rect width="7.30474" height="7.30474" fill="white" transform="translate(884.004 403.754)"/>
</clipPath>
<clipPath id="clip33_61_9274">
<rect width="7.30474" height="7.30474" fill="white" transform="translate(1108.67 403.754)"/>
</clipPath>
<clipPath id="clip34_61_9274">
<rect width="7.30474" height="7.30474" fill="white" transform="translate(1333.33 403.754)"/>
</clipPath>
<clipPath id="clip35_61_9274">
<rect width="7.30474" height="7.30474" fill="white" transform="translate(315.039 452.625)"/>
</clipPath>
<clipPath id="clip36_61_9274">
<rect width="7.30474" height="7.30474" fill="white" transform="translate(539.703 452.625)"/>
</clipPath>
<clipPath id="clip37_61_9274">
<rect width="7.30474" height="7.30474" fill="white" transform="translate(764.367 452.625)"/>
</clipPath>
<clipPath id="clip38_61_9274">
<rect width="7.30474" height="7.30474" fill="white" transform="translate(989.029 452.625)"/>
</clipPath>
<clipPath id="clip39_61_9274">
<rect width="7.30474" height="7.30474" fill="white" transform="translate(1221 452.625)"/>
</clipPath>
<clipPath id="clip40_61_9274">
<rect width="7.30474" height="7.30474" fill="white" transform="translate(1452.97 452.625)"/>
</clipPath>
<clipPath id="clip41_61_9274">
<rect width="7.30474" height="7.30474" fill="white" transform="translate(202.707 501.497)"/>
</clipPath>
<clipPath id="clip42_61_9274">
<rect width="7.30474" height="7.30474" fill="white" transform="translate(434.676 501.497)"/>
</clipPath>
<clipPath id="clip43_61_9274">
<rect width="7.30474" height="7.30474" fill="white" transform="translate(659.34 501.497)"/>
</clipPath>
<clipPath id="clip44_61_9274">
<rect width="7.30474" height="7.30474" fill="white" transform="translate(884.002 501.497)"/>
</clipPath>
<clipPath id="clip45_61_9274">
<rect width="7.30474" height="7.30474" fill="white" transform="translate(1108.67 501.497)"/>
</clipPath>
<clipPath id="clip46_61_9274">
<rect width="7.30474" height="7.30474" fill="white" transform="translate(1333.33 501.497)"/>
</clipPath>
<clipPath id="clip47_61_9274">
<rect width="7.30474" height="7.30474" fill="white" transform="translate(1565.3 501.497)"/>
</clipPath>
</defs>
</svg>
